<mxfile host="app.diagrams.net" modified="2023-04-11T19:57:30.989Z" agent="Mozilla/5.0 (Windows NT 10.0; Win64; x64) AppleWebKit/537.36 (KHTML, like Gecko) Chrome/111.0.0.0 Safari/537.36" etag="sABaEJjnkaBEsyjBXVaL" version="21.1.6" type="github" pages="2">
  <diagram name="Página-1" id="BzS_wPy_dweKsXEWJOO5">
    <mxGraphModel dx="1050" dy="549" grid="1" gridSize="10" guides="1" tooltips="1" connect="1" arrows="1" fold="1" page="1" pageScale="1" pageWidth="827" pageHeight="1169" math="0" shadow="0">
      <root>
        <mxCell id="0" />
        <mxCell id="1" parent="0" />
        <mxCell id="kfXMIqX852KwrT9XWXHF-32" value="Actor" style="shape=umlActor;verticalLabelPosition=bottom;verticalAlign=top;html=1;outlineConnect=0;" vertex="1" parent="1">
          <mxGeometry x="60" y="800" width="30" height="60" as="geometry" />
        </mxCell>
        <mxCell id="kfXMIqX852KwrT9XWXHF-34" value="cadastrar" style="ellipse;whiteSpace=wrap;html=1;" vertex="1" parent="1">
          <mxGeometry x="160" y="820" width="90" height="50" as="geometry" />
        </mxCell>
        <mxCell id="bw5xAvwIlMRXzH_YTHHo-3" style="edgeStyle=orthogonalEdgeStyle;rounded=0;orthogonalLoop=1;jettySize=auto;html=1;dashed=1;dashPattern=8 8;" edge="1" parent="1" source="kfXMIqX852KwrT9XWXHF-35" target="kfXMIqX852KwrT9XWXHF-38">
          <mxGeometry relative="1" as="geometry" />
        </mxCell>
        <mxCell id="kfXMIqX852KwrT9XWXHF-35" value="visualizar e procurar produtos" style="ellipse;whiteSpace=wrap;html=1;" vertex="1" parent="1">
          <mxGeometry x="310" y="770" width="90" height="50" as="geometry" />
        </mxCell>
        <mxCell id="kfXMIqX852KwrT9XWXHF-70" style="edgeStyle=orthogonalEdgeStyle;rounded=0;orthogonalLoop=1;jettySize=auto;html=1;exitX=0;exitY=0;exitDx=0;exitDy=0;entryX=0.5;entryY=1;entryDx=0;entryDy=0;dashed=1;dashPattern=1 1;" edge="1" parent="1" source="kfXMIqX852KwrT9XWXHF-37" target="kfXMIqX852KwrT9XWXHF-44">
          <mxGeometry relative="1" as="geometry" />
        </mxCell>
        <mxCell id="kfXMIqX852KwrT9XWXHF-37" value="inserir dados de pagamento" style="ellipse;whiteSpace=wrap;html=1;" vertex="1" parent="1">
          <mxGeometry x="150" y="1010" width="90" height="50" as="geometry" />
        </mxCell>
        <mxCell id="kfXMIqX852KwrT9XWXHF-38" value="selecionar produtos, especificações e add ao carrinho" style="ellipse;whiteSpace=wrap;html=1;" vertex="1" parent="1">
          <mxGeometry x="504" y="757.5" width="126" height="75" as="geometry" />
        </mxCell>
        <mxCell id="kfXMIqX852KwrT9XWXHF-68" style="edgeStyle=orthogonalEdgeStyle;rounded=0;orthogonalLoop=1;jettySize=auto;html=1;entryX=1;entryY=0;entryDx=0;entryDy=0;dashed=1;dashPattern=1 2;" edge="1" parent="1" source="kfXMIqX852KwrT9XWXHF-39" target="kfXMIqX852KwrT9XWXHF-37">
          <mxGeometry relative="1" as="geometry">
            <Array as="points">
              <mxPoint x="227" y="1000" />
            </Array>
          </mxGeometry>
        </mxCell>
        <mxCell id="kfXMIqX852KwrT9XWXHF-39" value="proseseguir para finalização" style="ellipse;whiteSpace=wrap;html=1;" vertex="1" parent="1">
          <mxGeometry x="300" y="990" width="90" height="50" as="geometry" />
        </mxCell>
        <mxCell id="kfXMIqX852KwrT9XWXHF-44" value="efetuar pagamento" style="ellipse;whiteSpace=wrap;html=1;" vertex="1" parent="1">
          <mxGeometry x="120" y="900" width="80" height="60" as="geometry" />
        </mxCell>
        <mxCell id="kfXMIqX852KwrT9XWXHF-45" value="logar" style="ellipse;whiteSpace=wrap;html=1;" vertex="1" parent="1">
          <mxGeometry x="180" y="690" width="70" height="60" as="geometry" />
        </mxCell>
        <mxCell id="kfXMIqX852KwrT9XWXHF-46" value="" style="endArrow=classic;html=1;rounded=0;endFill=1;" edge="1" parent="1">
          <mxGeometry width="50" height="50" relative="1" as="geometry">
            <mxPoint x="100" y="840" as="sourcePoint" />
            <mxPoint x="160" y="840" as="targetPoint" />
          </mxGeometry>
        </mxCell>
        <mxCell id="kfXMIqX852KwrT9XWXHF-48" value="" style="endArrow=classic;html=1;rounded=0;entryX=0;entryY=0.5;entryDx=0;entryDy=0;endFill=1;" edge="1" parent="1" target="kfXMIqX852KwrT9XWXHF-45">
          <mxGeometry width="50" height="50" relative="1" as="geometry">
            <mxPoint x="100" y="840" as="sourcePoint" />
            <mxPoint x="160" y="790" as="targetPoint" />
          </mxGeometry>
        </mxCell>
        <mxCell id="kfXMIqX852KwrT9XWXHF-52" value="" style="endArrow=classic;html=1;rounded=0;entryX=0;entryY=0;entryDx=0;entryDy=0;endFill=1;" edge="1" parent="1" target="kfXMIqX852KwrT9XWXHF-44">
          <mxGeometry width="50" height="50" relative="1" as="geometry">
            <mxPoint x="100" y="840" as="sourcePoint" />
            <mxPoint x="100" y="882.5" as="targetPoint" />
          </mxGeometry>
        </mxCell>
        <mxCell id="kfXMIqX852KwrT9XWXHF-56" style="edgeStyle=orthogonalEdgeStyle;rounded=0;orthogonalLoop=1;jettySize=auto;html=1;exitX=0.5;exitY=1;exitDx=0;exitDy=0;" edge="1" parent="1" source="kfXMIqX852KwrT9XWXHF-39" target="kfXMIqX852KwrT9XWXHF-39">
          <mxGeometry relative="1" as="geometry" />
        </mxCell>
        <mxCell id="kfXMIqX852KwrT9XWXHF-67" style="edgeStyle=orthogonalEdgeStyle;rounded=0;orthogonalLoop=1;jettySize=auto;html=1;exitX=0.5;exitY=1;exitDx=0;exitDy=0;dashed=1;dashPattern=1 2;" edge="1" parent="1" source="kfXMIqX852KwrT9XWXHF-57" target="kfXMIqX852KwrT9XWXHF-39">
          <mxGeometry relative="1" as="geometry" />
        </mxCell>
        <mxCell id="bw5xAvwIlMRXzH_YTHHo-10" style="edgeStyle=orthogonalEdgeStyle;rounded=0;orthogonalLoop=1;jettySize=auto;html=1;exitX=1;exitY=0.5;exitDx=0;exitDy=0;" edge="1" parent="1" source="kfXMIqX852KwrT9XWXHF-57">
          <mxGeometry relative="1" as="geometry">
            <mxPoint x="360" y="900" as="targetPoint" />
          </mxGeometry>
        </mxCell>
        <mxCell id="kfXMIqX852KwrT9XWXHF-57" value="visualizar carrinho e valores" style="ellipse;whiteSpace=wrap;html=1;" vertex="1" parent="1">
          <mxGeometry x="300" y="870" width="90" height="50" as="geometry" />
        </mxCell>
        <mxCell id="kfXMIqX852KwrT9XWXHF-64" value="" style="endArrow=none;dashed=1;html=1;dashPattern=1 3;strokeWidth=2;rounded=0;entryX=0.371;entryY=1.003;entryDx=0;entryDy=0;entryPerimeter=0;endFill=0;startArrow=classic;startFill=1;exitX=0.5;exitY=0;exitDx=0;exitDy=0;" edge="1" parent="1" source="kfXMIqX852KwrT9XWXHF-34" target="kfXMIqX852KwrT9XWXHF-45">
          <mxGeometry width="50" height="50" relative="1" as="geometry">
            <mxPoint x="200" y="820" as="sourcePoint" />
            <mxPoint x="250" y="770" as="targetPoint" />
          </mxGeometry>
        </mxCell>
        <mxCell id="kfXMIqX852KwrT9XWXHF-65" value="&amp;lt;&amp;lt;include&amp;gt;&amp;gt;" style="text;html=1;align=center;verticalAlign=middle;resizable=0;points=[];autosize=1;strokeColor=none;fillColor=none;rotation=-90;" vertex="1" parent="1">
          <mxGeometry x="140" y="770" width="90" height="30" as="geometry" />
        </mxCell>
        <mxCell id="kfXMIqX852KwrT9XWXHF-71" value="&amp;lt;&amp;lt;include&amp;gt;&amp;gt;" style="text;html=1;align=center;verticalAlign=middle;resizable=0;points=[];autosize=1;strokeColor=none;fillColor=none;rotation=-90;" vertex="1" parent="1">
          <mxGeometry x="90" y="990" width="90" height="30" as="geometry" />
        </mxCell>
        <mxCell id="bw5xAvwIlMRXzH_YTHHo-4" value="&amp;lt;&amp;lt;extend&amp;gt;&amp;gt;" style="text;html=1;align=center;verticalAlign=middle;resizable=0;points=[];autosize=1;strokeColor=none;fillColor=none;" vertex="1" parent="1">
          <mxGeometry x="400" y="770" width="90" height="30" as="geometry" />
        </mxCell>
        <mxCell id="bw5xAvwIlMRXzH_YTHHo-8" value="" style="endArrow=none;html=1;rounded=0;endFill=0;startArrow=classic;startFill=1;exitX=1;exitY=0.5;exitDx=0;exitDy=0;" edge="1" parent="1" source="kfXMIqX852KwrT9XWXHF-57" target="kfXMIqX852KwrT9XWXHF-38">
          <mxGeometry width="50" height="50" relative="1" as="geometry">
            <mxPoint x="360" y="900" as="sourcePoint" />
            <mxPoint x="420" y="850" as="targetPoint" />
          </mxGeometry>
        </mxCell>
        <mxCell id="bw5xAvwIlMRXzH_YTHHo-9" value="&amp;lt;&amp;lt;include&amp;gt;&amp;gt;" style="text;html=1;align=center;verticalAlign=middle;resizable=0;points=[];autosize=1;strokeColor=none;fillColor=none;" vertex="1" parent="1">
          <mxGeometry x="180" y="960" width="90" height="30" as="geometry" />
        </mxCell>
        <mxCell id="bw5xAvwIlMRXzH_YTHHo-11" value="" style="endArrow=none;html=1;rounded=0;endFill=0;startArrow=classic;startFill=1;exitX=1;exitY=0;exitDx=0;exitDy=0;" edge="1" parent="1" source="bw5xAvwIlMRXzH_YTHHo-12">
          <mxGeometry width="50" height="50" relative="1" as="geometry">
            <mxPoint x="70" y="990" as="sourcePoint" />
            <mxPoint x="120" y="940" as="targetPoint" />
          </mxGeometry>
        </mxCell>
        <mxCell id="bw5xAvwIlMRXzH_YTHHo-12" value="finalizar compra" style="ellipse;whiteSpace=wrap;html=1;" vertex="1" parent="1">
          <mxGeometry x="20" y="990" width="60" height="50" as="geometry" />
        </mxCell>
        <mxCell id="bw5xAvwIlMRXzH_YTHHo-13" value="&amp;lt;&amp;lt;extend&amp;gt;&amp;gt;" style="text;html=1;align=center;verticalAlign=middle;resizable=0;points=[];autosize=1;strokeColor=none;fillColor=none;rotation=-90;" vertex="1" parent="1">
          <mxGeometry x="290" y="940" width="90" height="30" as="geometry" />
        </mxCell>
        <mxCell id="bw5xAvwIlMRXzH_YTHHo-15" value="" style="endArrow=classic;html=1;rounded=0;" edge="1" parent="1" target="kfXMIqX852KwrT9XWXHF-35">
          <mxGeometry width="50" height="50" relative="1" as="geometry">
            <mxPoint x="250" y="830" as="sourcePoint" />
            <mxPoint x="300" y="780" as="targetPoint" />
          </mxGeometry>
        </mxCell>
      </root>
    </mxGraphModel>
  </diagram>
  <diagram id="8n6AGgY-f2guJdz92XrD" name="Página-2">
    <mxGraphModel dx="1050" dy="549" grid="1" gridSize="10" guides="1" tooltips="1" connect="1" arrows="1" fold="1" page="1" pageScale="1" pageWidth="827" pageHeight="1169" math="0" shadow="0">
      <root>
        <mxCell id="0" />
        <mxCell id="1" parent="0" />
      </root>
    </mxGraphModel>
  </diagram>
</mxfile>
